<?xml version="1.0" encoding="UTF-8" standalone="no"?>
<svg
   xmlns:dc="http://purl.org/dc/elements/1.1/"
   xmlns:cc="http://creativecommons.org/ns#"
   xmlns:rdf="http://www.w3.org/1999/02/22-rdf-syntax-ns#"
   xmlns:svg="http://www.w3.org/2000/svg"
   xmlns="http://www.w3.org/2000/svg"
   xmlns:sodipodi="http://sodipodi.sourceforge.net/DTD/sodipodi-0.dtd"
   xmlns:inkscape="http://www.inkscape.org/namespaces/inkscape"
   width="69.914833pt"
   height="75pt"
   viewBox="0 0 69.914834 74.999999"
   version="1.2"
   id="svg4766"
   sodipodi:docname="unstable_heat_stencil.svg"
   inkscape:version="0.92.3 (2405546, 2018-03-11)">
  <metadata
     id="metadata4770">
    <rdf:RDF>
      <cc:Work
         rdf:about="">
        <dc:format>image/svg+xml</dc:format>
        <dc:type
           rdf:resource="http://purl.org/dc/dcmitype/StillImage" />
        <dc:title></dc:title>
      </cc:Work>
    </rdf:RDF>
  </metadata>
  <sodipodi:namedview
     pagecolor="#ffffff"
     bordercolor="#666666"
     borderopacity="1"
     objecttolerance="10"
     gridtolerance="10"
     guidetolerance="10"
     inkscape:pageopacity="0"
     inkscape:pageshadow="2"
     inkscape:window-width="1340"
     inkscape:window-height="797"
     id="namedview4768"
     showgrid="false"
     inkscape:zoom="1.0520434"
     inkscape:cx="-88.071473"
     inkscape:cy="111.49793"
     inkscape:window-x="0"
     inkscape:window-y="0"
     inkscape:window-maximized="0"
     inkscape:current-layer="svg4766"
     fit-margin-top="0"
     fit-margin-left="0"
     fit-margin-right="0"
     fit-margin-bottom="0" />
  <defs
     id="defs4723">
    <clipPath
       id="clip1">
      <path
         d="m 68,2 h 88.90625 V 95 H 68 Z m 0,0"
         id="path4708"
         inkscape:connector-curvature="0" />
    </clipPath>
    <clipPath
       id="clip2">
      <path
         d="m 103,2 h 53.90625 V 95 H 103 Z m 0,0"
         id="path4711"
         inkscape:connector-curvature="0" />
    </clipPath>
    <clipPath
       id="clip3">
      <path
         d="m 27,103 h 103 v 65.24219 H 27 Z m 0,0"
         id="path4714"
         inkscape:connector-curvature="0" />
    </clipPath>
    <clipPath
       id="clip4">
      <path
         d="M 27,68 H 130 V 168.24219 H 27 Z m 0,0"
         id="path4717"
         inkscape:connector-curvature="0" />
    </clipPath>
    <clipPath
       id="clip5">
      <path
         d="m 38,0 h 81 V 168.24219 H 38 Z m 0,0"
         id="path4720"
         inkscape:connector-curvature="0" />
    </clipPath>
  </defs>
  <g
     id="surface27273"
     transform="matrix(0.44843392,0,0,0.44843392,-0.2245035,-0.22275057)">
    <path
       style="fill:#636363;fill-opacity:1;fill-rule:nonzero;stroke:#636363;stroke-width:2.83466005;stroke-linecap:butt;stroke-linejoin:miter;stroke-miterlimit:10;stroke-opacity:1"
       d="m 5.670813,106.3005 c 0,3.13281 -2.539063,5.66797 -5.6718755,5.66797 -3.1289065,0 -5.6679685,-2.53516 -5.6679685,-5.66797 0,-3.13281 2.539062,-5.66797 5.6679685,-5.66797 3.1328125,0 5.6718755,2.53516 5.6718755,5.66797 z m 0,0"
       transform="matrix(1,0,0,-1,7.587,154.988)"
       id="path4725"
       inkscape:connector-curvature="0" />
    <path
       style="fill:#636363;fill-opacity:1;fill-rule:nonzero;stroke:#636363;stroke-width:2.83466005;stroke-linecap:butt;stroke-linejoin:miter;stroke-miterlimit:10;stroke-opacity:1"
       d="m 41.104406,106.3005 c 0,3.13281 -2.539062,5.66797 -5.671875,5.66797 -3.128906,0 -5.667968,-2.53516 -5.667968,-5.66797 0,-3.13281 2.539062,-5.66797 5.667968,-5.66797 3.132813,0 5.671875,2.53516 5.671875,5.66797 z m 0,0"
       transform="matrix(1,0,0,-1,7.587,154.988)"
       id="path4727"
       inkscape:connector-curvature="0" />
    <path
       style="fill:#636363;fill-opacity:1;fill-rule:nonzero;stroke:#636363;stroke-width:2.83466005;stroke-linecap:butt;stroke-linejoin:miter;stroke-miterlimit:10;stroke-opacity:1"
       d="m 76.538,106.3005 c 0,3.13281 -2.539063,5.66797 -5.671875,5.66797 -3.128906,0 -5.667969,-2.53516 -5.667969,-5.66797 0,-3.13281 2.539063,-5.66797 5.667969,-5.66797 3.132812,0 5.671875,2.53516 5.671875,5.66797 z m 0,0"
       transform="matrix(1,0,0,-1,7.587,154.988)"
       id="path4729"
       inkscape:connector-curvature="0" />
    <path
       style="fill:#636363;fill-opacity:1;fill-rule:nonzero;stroke:none"
       d="m 119.55859,48.6875 c 0,-3.132812 -2.53906,-5.667969 -5.67187,-5.667969 -3.12891,0 -5.66797,2.535157 -5.66797,5.667969 0,3.132813 2.53906,5.667969 5.66797,5.667969 3.13281,0 5.67187,-2.535156 5.67187,-5.667969 z m 0,0"
       id="path4731"
       inkscape:connector-curvature="0" />
    <g
       clip-path="url(#clip1)"
       id="g4735"
       style="clip-rule:nonzero">
      <path
         style="fill:none;stroke:#636363;stroke-width:2.83466005;stroke-linecap:butt;stroke-linejoin:miter;stroke-miterlimit:10;stroke-opacity:1"
         d="m 111.97159,106.3005 c 0,3.13281 -2.53906,5.66797 -5.67187,5.66797 -3.12891,0 -5.66797,-2.53516 -5.66797,-5.66797 0,-3.13281 2.53906,-5.66797 5.66797,-5.66797 3.13281,0 5.67187,2.53516 5.67187,5.66797 z m 0,0"
         transform="matrix(1,0,0,-1,7.587,154.988)"
         id="path4733"
         inkscape:connector-curvature="0" />
    </g>
    <path
       style="fill:#636363;fill-opacity:1;fill-rule:nonzero;stroke:none"
       d="m 154.99219,48.6875 c 0,-3.132812 -2.53907,-5.667969 -5.67188,-5.667969 -3.1289,0 -5.66797,2.535157 -5.66797,5.667969 0,3.132813 2.53907,5.667969 5.66797,5.667969 3.13281,0 5.67188,-2.535156 5.67188,-5.667969 z m 0,0"
       id="path4737"
       inkscape:connector-curvature="0" />
    <g
       clip-path="url(#clip2)"
       id="g4741"
       style="clip-rule:nonzero">
      <path
         style="fill:none;stroke:#636363;stroke-width:2.83466005;stroke-linecap:butt;stroke-linejoin:miter;stroke-miterlimit:10;stroke-opacity:1"
         d="m 147.40519,106.3005 c 0,3.13281 -2.53907,5.66797 -5.67188,5.66797 -3.1289,0 -5.66797,-2.53516 -5.66797,-5.66797 0,-3.13281 2.53907,-5.66797 5.66797,-5.66797 3.13281,0 5.67188,2.53516 5.67188,5.66797 z m 0,0"
         transform="matrix(1,0,0,-1,7.587,154.988)"
         id="path4739"
         inkscape:connector-curvature="0" />
    </g>
    <path
       style="fill:none;stroke:#636363;stroke-width:2.83466005;stroke-linecap:butt;stroke-linejoin:miter;stroke-miterlimit:10;stroke-opacity:1"
       d="m 7.088781,106.33175 h 21.265625 m 14.175781,0 h 21.265625 m 14.175782,0 h 21.265625 m 14.175781,0 h 21.26562"
       transform="matrix(1,0,0,-1,7.587,154.988)"
       id="path4743"
       inkscape:connector-curvature="0" />
    <g
       clip-path="url(#clip3)"
       id="g4747"
       style="clip-rule:nonzero">
      <path
         style="fill:none;stroke:#000000;stroke-width:2.83466005;stroke-linecap:butt;stroke-linejoin:miter;stroke-miterlimit:10;stroke-opacity:1"
         d="m 82.205969,-2.8125e-4 c 0,6.26171825 -5.078125,11.33984325 -11.339844,11.33984325 -6.261719,0 -11.335938,-5.078125 -11.335938,-11.33984325 0,-6.26171875 5.074219,-11.33984375 11.335938,-11.33984375 6.261719,0 11.339844,5.078125 11.339844,11.33984375 z m 0,0"
         transform="matrix(1,0,0,-1,7.587,154.988)"
         id="path4745"
         inkscape:connector-curvature="0" />
    </g>
    <g
       clip-path="url(#clip4)"
       id="g4751"
       style="clip-rule:nonzero">
      <path
         style="fill:none;stroke:#000000;stroke-width:2.83466005;stroke-linecap:butt;stroke-linejoin:miter;stroke-miterlimit:10;stroke-opacity:1"
         d="m 82.205969,35.433312 c 0,6.261719 -5.078125,11.339844 -11.339844,11.339844 -6.261719,0 -11.335938,-5.078125 -11.335938,-11.339844 0,-6.261718 5.074219,-11.339843 11.335938,-11.339843 6.261719,0 11.339844,5.078125 11.339844,11.339843 z m 0,0"
         transform="matrix(1,0,0,-1,7.587,154.988)"
         id="path4749"
         inkscape:connector-curvature="0" />
    </g>
    <path
       style="fill:none;stroke:#000000;stroke-width:2.83466005;stroke-linecap:butt;stroke-linejoin:miter;stroke-miterlimit:10;stroke-opacity:1"
       d="m 82.205969,70.866906 c 0,6.261719 -5.078125,11.339844 -11.339844,11.339844 -6.261719,0 -11.335938,-5.078125 -11.335938,-11.339844 0,-6.261719 5.074219,-11.339844 11.335938,-11.339844 6.261719,0 11.339844,5.078125 11.339844,11.339844 z m 0,0"
       transform="matrix(1,0,0,-1,7.587,154.988)"
       id="path4753"
       inkscape:connector-curvature="0" />
    <path
       style="fill:none;stroke:#000000;stroke-width:2.83466005;stroke-linecap:butt;stroke-linejoin:miter;stroke-miterlimit:10;stroke-opacity:1"
       d="m 82.205969,106.3005 c 0,6.26172 -5.078125,11.33984 -11.339844,11.33984 -6.261719,0 -11.335938,-5.07812 -11.335938,-11.33984 0,-6.26172 5.074219,-11.339844 11.335938,-11.339844 6.261719,0 11.339844,5.078124 11.339844,11.339844 z m 0,0"
       transform="matrix(1,0,0,-1,7.587,154.988)"
       id="path4755"
       inkscape:connector-curvature="0" />
    <path
       style="fill:none;stroke:#000000;stroke-width:2.83466005;stroke-linecap:butt;stroke-linejoin:miter;stroke-miterlimit:10;stroke-opacity:1"
       d="m 82.205969,141.73409 c 0,6.26172 -5.078125,11.33985 -11.339844,11.33985 -6.261719,0 -11.335938,-5.07813 -11.335938,-11.33985 0,-6.26172 5.074219,-11.33984 11.335938,-11.33984 6.261719,0 11.339844,5.07812 11.339844,11.33984 z m 0,0"
       transform="matrix(1,0,0,-1,7.587,154.988)"
       id="path4757"
       inkscape:connector-curvature="0" />
    <path
       style="fill:#000000;fill-opacity:1;fill-rule:nonzero;stroke:none"
       d="m 78.484375,142.23047 -0.0078,-9.92578 m 0.0078,-25.51563 -0.0078,-9.925779 m 0.0078,-25.519531 -0.0078,-9.921875 m 0.0078,-25.519531 -0.0078,-9.921875"
       id="path4759"
       inkscape:connector-curvature="0" />
    <g
       clip-path="url(#clip5)"
       id="g4763"
       style="clip-rule:nonzero">
      <path
         style="fill:none;stroke:#000000;stroke-width:2.83466005;stroke-linecap:butt;stroke-linejoin:miter;stroke-miterlimit:10;stroke-opacity:1"
         d="m 70.897375,12.757531 -0.0078,9.925781 m 0.0078,25.515625 -0.0078,9.925782 m 0.0078,25.519531 -0.0078,9.921875 m 0.0078,25.519535 -0.0078,9.92187"
         transform="matrix(1,0,0,-1,7.587,154.988)"
         id="path4761"
         inkscape:connector-curvature="0" />
    </g>
  </g>
</svg>
