<?xml version="1.0" encoding="UTF-8" standalone="no"?>
<svg
   xmlns:dc="http://purl.org/dc/elements/1.1/"
   xmlns:cc="http://creativecommons.org/ns#"
   xmlns:rdf="http://www.w3.org/1999/02/22-rdf-syntax-ns#"
   xmlns:svg="http://www.w3.org/2000/svg"
   xmlns="http://www.w3.org/2000/svg"
   xmlns:sodipodi="http://sodipodi.sourceforge.net/DTD/sodipodi-0.dtd"
   xmlns:inkscape="http://www.inkscape.org/namespaces/inkscape"
   width="156.905pt"
   height="168.244pt"
   viewBox="0 0 156.905 168.244"
   version="1.2"
   id="svg4766"
   sodipodi:docname="unstable_heat_stencil.svg"
   inkscape:version="0.92.3 (2405546, 2018-03-11)">
  <metadata
     id="metadata4770">
    <rdf:RDF>
      <cc:Work
         rdf:about="">
        <dc:format>image/svg+xml</dc:format>
        <dc:type
           rdf:resource="http://purl.org/dc/dcmitype/StillImage" />
        <dc:title></dc:title>
      </cc:Work>
    </rdf:RDF>
  </metadata>
  <sodipodi:namedview
     pagecolor="#ffffff"
     bordercolor="#666666"
     borderopacity="1"
     objecttolerance="10"
     gridtolerance="10"
     guidetolerance="10"
     inkscape:pageopacity="0"
     inkscape:pageshadow="2"
     inkscape:window-width="809"
     inkscape:window-height="480"
     id="namedview4768"
     showgrid="false"
     inkscape:zoom="1.0520434"
     inkscape:cx="104.60333"
     inkscape:cy="112.16267"
     inkscape:window-x="0"
     inkscape:window-y="0"
     inkscape:window-maximized="0"
     inkscape:current-layer="svg4766" />
  <defs
     id="defs4723">
    <clipPath
       id="clip1">
      <path
         d="M 68 2 L 156.90625 2 L 156.90625 95 L 68 95 Z M 68 2 "
         id="path4708" />
    </clipPath>
    <clipPath
       id="clip2">
      <path
         d="M 103 2 L 156.90625 2 L 156.90625 95 L 103 95 Z M 103 2 "
         id="path4711" />
    </clipPath>
    <clipPath
       id="clip3">
      <path
         d="M 27 103 L 130 103 L 130 168.242188 L 27 168.242188 Z M 27 103 "
         id="path4714" />
    </clipPath>
    <clipPath
       id="clip4">
      <path
         d="M 27 68 L 130 68 L 130 168.242188 L 27 168.242188 Z M 27 68 "
         id="path4717" />
    </clipPath>
    <clipPath
       id="clip5">
      <path
         d="M 38 0 L 119 0 L 119 168.242188 L 38 168.242188 Z M 38 0 "
         id="path4720" />
    </clipPath>
  </defs>
  <g
     id="surface27273">
    <path
       style="fill-rule:nonzero;fill:rgb(39.99939%,39.99939%,39.99939%);fill-opacity:1;stroke-width:2.83466;stroke-linecap:butt;stroke-linejoin:miter;stroke:rgb(39.99939%,39.99939%,39.99939%);stroke-opacity:1;stroke-miterlimit:10;"
       d="M 5.670813 106.3005 C 5.670813 109.433312 3.13175 111.968469 -0.0010625 111.968469 C -3.129969 111.968469 -5.669031 109.433312 -5.669031 106.3005 C -5.669031 103.167687 -3.129969 100.632531 -0.0010625 100.632531 C 3.13175 100.632531 5.670813 103.167687 5.670813 106.3005 Z M 5.670813 106.3005 "
       transform="matrix(1,0,0,-1,7.587,154.988)"
       id="path4725" />
    <path
       style="fill-rule:nonzero;fill:rgb(39.99939%,39.99939%,39.99939%);fill-opacity:1;stroke-width:2.83466;stroke-linecap:butt;stroke-linejoin:miter;stroke:rgb(39.99939%,39.99939%,39.99939%);stroke-opacity:1;stroke-miterlimit:10;"
       d="M 41.104406 106.3005 C 41.104406 109.433312 38.565344 111.968469 35.432531 111.968469 C 32.303625 111.968469 29.764563 109.433312 29.764563 106.3005 C 29.764563 103.167687 32.303625 100.632531 35.432531 100.632531 C 38.565344 100.632531 41.104406 103.167687 41.104406 106.3005 Z M 41.104406 106.3005 "
       transform="matrix(1,0,0,-1,7.587,154.988)"
       id="path4727" />
    <path
       style="fill-rule:nonzero;fill:rgb(39.99939%,39.99939%,39.99939%);fill-opacity:1;stroke-width:2.83466;stroke-linecap:butt;stroke-linejoin:miter;stroke:rgb(39.99939%,39.99939%,39.99939%);stroke-opacity:1;stroke-miterlimit:10;"
       d="M 76.538 106.3005 C 76.538 109.433312 73.998937 111.968469 70.866125 111.968469 C 67.737219 111.968469 65.198156 109.433312 65.198156 106.3005 C 65.198156 103.167687 67.737219 100.632531 70.866125 100.632531 C 73.998937 100.632531 76.538 103.167687 76.538 106.3005 Z M 76.538 106.3005 "
       transform="matrix(1,0,0,-1,7.587,154.988)"
       id="path4729" />
    <path
       style=" stroke:none;fill-rule:nonzero;fill:rgb(39.99939%,39.99939%,39.99939%);fill-opacity:1;"
       d="M 119.558594 48.6875 C 119.558594 45.554688 117.019531 43.019531 113.886719 43.019531 C 110.757813 43.019531 108.21875 45.554688 108.21875 48.6875 C 108.21875 51.820313 110.757813 54.355469 113.886719 54.355469 C 117.019531 54.355469 119.558594 51.820313 119.558594 48.6875 Z M 119.558594 48.6875 "
       id="path4731" />
    <g
       clip-path="url(#clip1)"
       clip-rule="nonzero"
       id="g4735">
      <path
         style="fill:none;stroke-width:2.83466;stroke-linecap:butt;stroke-linejoin:miter;stroke:rgb(39.99939%,39.99939%,39.99939%);stroke-opacity:1;stroke-miterlimit:10;"
         d="M 111.971594 106.3005 C 111.971594 109.433312 109.432531 111.968469 106.299719 111.968469 C 103.170813 111.968469 100.63175 109.433312 100.63175 106.3005 C 100.63175 103.167687 103.170813 100.632531 106.299719 100.632531 C 109.432531 100.632531 111.971594 103.167687 111.971594 106.3005 Z M 111.971594 106.3005 "
         transform="matrix(1,0,0,-1,7.587,154.988)"
         id="path4733" />
    </g>
    <path
       style=" stroke:none;fill-rule:nonzero;fill:rgb(39.99939%,39.99939%,39.99939%);fill-opacity:1;"
       d="M 154.992188 48.6875 C 154.992188 45.554688 152.453125 43.019531 149.320313 43.019531 C 146.191406 43.019531 143.652344 45.554688 143.652344 48.6875 C 143.652344 51.820313 146.191406 54.355469 149.320313 54.355469 C 152.453125 54.355469 154.992188 51.820313 154.992188 48.6875 Z M 154.992188 48.6875 "
       id="path4737" />
    <g
       clip-path="url(#clip2)"
       clip-rule="nonzero"
       id="g4741">
      <path
         style="fill:none;stroke-width:2.83466;stroke-linecap:butt;stroke-linejoin:miter;stroke:rgb(39.99939%,39.99939%,39.99939%);stroke-opacity:1;stroke-miterlimit:10;"
         d="M 147.405188 106.3005 C 147.405188 109.433312 144.866125 111.968469 141.733313 111.968469 C 138.604406 111.968469 136.065344 109.433312 136.065344 106.3005 C 136.065344 103.167687 138.604406 100.632531 141.733313 100.632531 C 144.866125 100.632531 147.405188 103.167687 147.405188 106.3005 Z M 147.405188 106.3005 "
         transform="matrix(1,0,0,-1,7.587,154.988)"
         id="path4739" />
    </g>
    <path
       style="fill:none;stroke-width:2.83466;stroke-linecap:butt;stroke-linejoin:miter;stroke:rgb(39.99939%,39.99939%,39.99939%);stroke-opacity:1;stroke-miterlimit:10;"
       d="M 7.088781 106.33175 L 28.354406 106.33175 M 42.530187 106.33175 L 63.795812 106.33175 M 77.971594 106.33175 L 99.237219 106.33175 M 113.413 106.33175 L 134.678625 106.33175 "
       transform="matrix(1,0,0,-1,7.587,154.988)"
       id="path4743" />
    <g
       clip-path="url(#clip3)"
       clip-rule="nonzero"
       id="g4747">
      <path
         style="fill:none;stroke-width:2.83466;stroke-linecap:butt;stroke-linejoin:miter;stroke:rgb(0%,0%,0%);stroke-opacity:1;stroke-miterlimit:10;"
         d="M 82.205969 -0.00028125 C 82.205969 6.261437 77.127844 11.339562 70.866125 11.339562 C 64.604406 11.339562 59.530187 6.261437 59.530187 -0.00028125 C 59.530187 -6.262 64.604406 -11.340125 70.866125 -11.340125 C 77.127844 -11.340125 82.205969 -6.262 82.205969 -0.00028125 Z M 82.205969 -0.00028125 "
         transform="matrix(1,0,0,-1,7.587,154.988)"
         id="path4745" />
    </g>
    <g
       clip-path="url(#clip4)"
       clip-rule="nonzero"
       id="g4751">
      <path
         style="fill:none;stroke-width:2.83466;stroke-linecap:butt;stroke-linejoin:miter;stroke:rgb(0%,0%,0%);stroke-opacity:1;stroke-miterlimit:10;"
         d="M 82.205969 35.433312 C 82.205969 41.695031 77.127844 46.773156 70.866125 46.773156 C 64.604406 46.773156 59.530187 41.695031 59.530187 35.433312 C 59.530187 29.171594 64.604406 24.093469 70.866125 24.093469 C 77.127844 24.093469 82.205969 29.171594 82.205969 35.433312 Z M 82.205969 35.433312 "
         transform="matrix(1,0,0,-1,7.587,154.988)"
         id="path4749" />
    </g>
    <path
       style="fill:none;stroke-width:2.83466;stroke-linecap:butt;stroke-linejoin:miter;stroke:rgb(0%,0%,0%);stroke-opacity:1;stroke-miterlimit:10;"
       d="M 82.205969 70.866906 C 82.205969 77.128625 77.127844 82.20675 70.866125 82.20675 C 64.604406 82.20675 59.530187 77.128625 59.530187 70.866906 C 59.530187 64.605187 64.604406 59.527062 70.866125 59.527062 C 77.127844 59.527062 82.205969 64.605187 82.205969 70.866906 Z M 82.205969 70.866906 "
       transform="matrix(1,0,0,-1,7.587,154.988)"
       id="path4753" />
    <path
       style="fill:none;stroke-width:2.83466;stroke-linecap:butt;stroke-linejoin:miter;stroke:rgb(0%,0%,0%);stroke-opacity:1;stroke-miterlimit:10;"
       d="M 82.205969 106.3005 C 82.205969 112.562219 77.127844 117.640344 70.866125 117.640344 C 64.604406 117.640344 59.530187 112.562219 59.530187 106.3005 C 59.530187 100.038781 64.604406 94.960656 70.866125 94.960656 C 77.127844 94.960656 82.205969 100.038781 82.205969 106.3005 Z M 82.205969 106.3005 "
       transform="matrix(1,0,0,-1,7.587,154.988)"
       id="path4755" />
    <path
       style="fill:none;stroke-width:2.83466;stroke-linecap:butt;stroke-linejoin:miter;stroke:rgb(0%,0%,0%);stroke-opacity:1;stroke-miterlimit:10;"
       d="M 82.205969 141.734094 C 82.205969 147.995812 77.127844 153.073937 70.866125 153.073937 C 64.604406 153.073937 59.530187 147.995812 59.530187 141.734094 C 59.530187 135.472375 64.604406 130.39425 70.866125 130.39425 C 77.127844 130.39425 82.205969 135.472375 82.205969 141.734094 Z M 82.205969 141.734094 "
       transform="matrix(1,0,0,-1,7.587,154.988)"
       id="path4757" />
    <path
       style=" stroke:none;fill-rule:nonzero;fill:rgb(0%,0%,0%);fill-opacity:1;"
       d="M 78.484375 142.230469 L 78.476563 132.304688 M 78.484375 106.789063 L 78.476563 96.863281 M 78.484375 71.34375 L 78.476563 61.421875 M 78.484375 35.902344 L 78.476563 25.980469 "
       id="path4759" />
    <g
       clip-path="url(#clip5)"
       clip-rule="nonzero"
       id="g4763">
      <path
         style="fill:none;stroke-width:2.83466;stroke-linecap:butt;stroke-linejoin:miter;stroke:rgb(0%,0%,0%);stroke-opacity:1;stroke-miterlimit:10;"
         d="M 70.897375 12.757531 L 70.889562 22.683312 M 70.897375 48.198937 L 70.889562 58.124719 M 70.897375 83.64425 L 70.889562 93.566125 M 70.897375 119.085656 L 70.889562 129.007531 "
         transform="matrix(1,0,0,-1,7.587,154.988)"
         id="path4761" />
    </g>
  </g>
</svg>
